<?xml version="1.0" standalone="no"?>
<!DOCTYPE svg PUBLIC "-//W3C//DTD SVG 20010904//EN"
 "http://www.w3.org/TR/2001/REC-SVG-20010904/DTD/svg10.dtd">
<svg version="1.0" xmlns="http://www.w3.org/2000/svg"
 width="115px" height="50px" viewBox="0 0 990.000000 290.000000"
 preserveAspectRatio="xMidYMid meet">
<g transform="translate(-300.000000,330.000000) scale(0.1520,-0.1500000)"
fill="#000000" stroke="none">
<path d="M4650 2261 c-94 -29 -173 -103 -222 -206 -28 -61 -33 -82 -36 -171
-5 -114 7 -185 44 -264 59 -128 146 -191 275 -198 99 -6 162 15 227 73 226
203 169 656 -94 755 -56 20 -145 25 -194 11z m167 -131 c76 -46 119 -168 110
-310 -12 -187 -79 -282 -198 -282 -120 0 -189 113 -189 312 0 148 35 235 110
279 46 27 124 28 167 1z"/>
<path d="M2320 1846 l0 -416 55 0 55 0 0 297 0 298 118 -180 c65 -99 155 -233
201 -297 l82 -118 50 0 49 0 0 415 0 415 -55 0 -55 0 0 -297 0 -297 -72 113
c-40 62 -129 194 -199 294 l-125 182 -52 3 -52 3 0 -415z"/>
<path d="M3250 2256 c0 -2 -63 -188 -140 -412 -77 -225 -140 -410 -140 -412 0
-2 27 -2 61 0 l60 3 37 110 37 110 117 3 c136 3 122 14 163 -130 l28 -98 78 0
c58 0 77 3 74 13 -2 6 -56 179 -120 382 -64 204 -121 385 -126 403 -10 31 -12
32 -70 32 -32 0 -59 -2 -59 -4z m89 -323 c22 -83 41 -157 41 -162 0 -7 -33
-11 -91 -11 -68 0 -89 3 -86 13 3 6 24 80 48 164 24 84 44 151 45 150 1 -1 20
-70 43 -154z"/>
<path d="M3550 2205 l0 -55 105 0 105 0 0 -360 0 -360 70 0 70 0 0 360 0 360
111 0 110 0 -3 53 -3 52 -282 3 -283 2 0 -55z"/>
<path d="M4160 1845 l0 -415 70 0 70 0 0 415 0 415 -70 0 -70 0 0 -415z"/>
<path d="M5165 2247 c-3 -6 -4 -192 -3 -412 l3 -400 57 -3 58 -3 2 292 3 292
59 -94 c32 -52 120 -183 194 -291 l136 -198 53 0 53 0 -2 413 -3 412 -55 0
-55 0 -3 -288 -2 -289 -153 229 c-256 382 -233 353 -289 353 -30 0 -51 -5 -53
-13z"/>
<path d="M6089 2233 c-22 -56 -269 -786 -269 -795 0 -4 26 -8 58 -8 l59 0 34
113 35 112 124 0 123 0 31 -110 32 -110 77 -3 c42 -2 77 1 77 5 0 4 -58 190
-128 413 l-128 405 -57 3 c-54 3 -58 2 -68 -25z m96 -308 c21 -77 40 -146 43
-152 3 -10 -18 -13 -88 -13 -82 0 -91 2 -88 18 10 57 84 300 89 294 4 -4 24
-70 44 -147z"/>
<path d="M6517 2253 c-4 -3 -7 -190 -7 -415 l0 -408 210 0 210 0 0 55 0 54
-137 3 -138 3 -3 358 -2 357 -63 0 c-35 0 -67 -3 -70 -7z"/>
<path d="M2505 1187 c-72 -24 -120 -54 -167 -105 -131 -140 -155 -341 -63
-529 40 -82 91 -132 175 -172 50 -23 66 -26 170 -26 91 0 127 5 170 21 l55 20
0 170 0 169 -67 3 -68 3 0 -125 c0 -145 -1 -147 -98 -148 -93 -1 -163 49 -211
152 -22 48 -26 68 -26 156 0 96 2 105 35 170 28 55 45 74 84 98 65 41 161 48
230 18 l46 -21 20 39 c11 22 20 46 20 53 0 8 -24 25 -52 37 -65 28 -193 37
-253 17z"/>
<path d="M3684 1186 c-117 -37 -205 -142 -239 -288 -36 -154 6 -343 101 -448
108 -120 299 -135 431 -34 135 103 186 361 112 561 -32 83 -134 185 -209 207
-64 19 -139 20 -196 2z m194 -134 c70 -50 109 -199 91 -346 -20 -155 -85 -238
-187 -238 -86 0 -133 38 -173 140 -29 75 -32 262 -6 331 23 60 63 110 101 127
45 21 135 13 174 -14z"/>
<path d="M4459 1187 c-266 -75 -373 -436 -203 -684 45 -65 135 -127 208 -144
70 -15 206 -7 276 17 l55 19 3 173 2 172 -70 0 -70 0 0 -129 0 -129 -47 -11
c-80 -16 -137 2 -198 63 -65 65 -88 128 -89 241 0 138 54 243 149 286 55 25
147 24 204 -1 24 -11 45 -19 46 -18 1 2 12 24 23 51 l21 47 -52 27 c-62 31
-183 41 -258 20z"/>
<path d="M7893 1186 c-129 -42 -225 -146 -263 -286 -30 -112 -6 -284 54 -378
33 -53 110 -120 164 -145 72 -32 200 -35 274 -7 32 12 60 25 63 30 6 10 -27
100 -38 100 -4 0 -22 -7 -39 -16 -17 -9 -56 -16 -87 -16 -154 -1 -256 121
-255 307 0 139 54 243 149 286 54 25 138 24 194 -1 24 -11 45 -19 46 -18 1 2
12 25 23 51 l21 48 -57 27 c-68 32 -182 40 -249 18z"/>
<path d="M2977 1184 c-4 -4 -7 -191 -7 -416 l0 -408 210 0 210 0 0 55 0 54
-137 3 -138 3 0 130 0 130 113 3 112 3 0 54 0 55 -115 0 -116 0 3 113 3 112
118 3 118 3 -3 52 -3 52 -181 3 c-99 1 -183 -1 -187 -4z"/>
<path d="M4930 776 l0 -416 70 0 70 0 0 156 0 155 32 -3 c30 -3 33 -7 96 -155
l64 -153 142 0 143 0 34 113 35 112 124 0 123 0 31 -110 32 -110 77 -3 c42 -2
77 1 77 5 0 4 -58 190 -128 413 l-128 405 -59 0 -59 0 -138 -400 c-75 -220
-139 -404 -141 -410 -3 -5 -41 65 -86 156 l-80 166 54 55 c39 41 58 70 69 109
41 136 -6 256 -119 305 -30 13 -77 19 -187 22 l-148 4 0 -416z m277 279 c35
-23 56 -80 49 -132 -12 -91 -64 -143 -143 -143 l-43 0 0 151 0 152 56 -6 c30
-3 67 -13 81 -22z m587 -195 c20 -74 39 -143 42 -152 5 -16 -4 -18 -86 -18
-82 0 -91 2 -88 18 10 58 84 300 89 294 4 -4 23 -68 43 -142z"/>
<path d="M6130 776 l0 -416 70 0 70 0 0 154 0 153 69 6 c162 13 256 117 256
282 0 109 -29 161 -112 202 -54 26 -68 28 -205 32 l-148 3 0 -416z m277 279
c36 -24 56 -80 49 -139 -10 -85 -64 -136 -143 -136 l-43 0 0 151 0 152 56 -6
c30 -3 67 -13 81 -22z"/>
<path d="M6680 775 l0 -415 70 0 70 0 0 200 0 200 145 0 145 0 0 -200 0 -200
70 0 70 0 0 410 0 410 -23 5 c-13 4 -43 5 -68 3 l-44 -3 -3 -157 -3 -158 -144
0 -145 0 0 160 0 160 -70 0 -70 0 0 -415z"/>
<path d="M7387 1183 c-4 -3 -7 -190 -7 -415 l0 -408 70 0 70 0 0 415 0 415
-63 0 c-35 0 -67 -3 -70 -7z"/>
</g>
</svg>  
